<?xml version="1.0" standalone="no"?>
<!DOCTYPE svg PUBLIC "-//W3C//DTD SVG 1.1//EN" "http://www.w3.org/Graphics/SVG/1.1/DTD/svg11.dtd" >
<svg xmlns="http://www.w3.org/2000/svg">
<metadata>Generated by IcoMoon</metadata>
<defs>
<font id="hubitat" horiz-adv-x="1024">
<font-face units-per-em="1024" ascent="960" descent="-64" />
<missing-glyph horiz-adv-x="1024" />
<glyph unicode="&#x20;" horiz-adv-x="512" d="" />
<glyph unicode="&#xe900;" glyph-name="certificate-2" d="M733.536 226.15l-23.456-117.222 34.752 17.376c4.512 2.272 9.824 2.272 14.336 0l34.752-17.376-23.456 117.222c-5.929-1.406-12.111-2.15-18.464-2.15s-12.535 0.744-18.464 2.15zM703.74 240.234c-19.274 14.624-31.74 37.772-31.74 63.766 0 44.096 35.872 80 80 80s80-35.904 80-80c0-25.994-12.466-49.142-31.74-63.766l31.42-157.098c1.184-5.984-1.12-12.128-5.952-15.84-2.848-2.176-6.304-3.296-9.728-3.296-2.432 0-4.864 0.576-7.168 1.696l-56.832 28.416-56.832-28.416c-5.408-2.72-12-2.144-16.896 1.6-4.832 3.712-7.136 9.856-5.952 15.84l31.42 157.098zM224 608v-448h400c8.832 0 16-7.168 16-16s-7.168-16-16-16h-416c-8.832 0-16 7.168-16 16v480c0 4.256 1.696 8.32 4.672 11.328l192 192c3.008 2.976 7.072 4.672 11.328 4.672h352c8.832 0 16-7.168 16-16v-384c0-8.832-7.168-16-16-16s-16 7.168-16 16v368h-320v-176c0-8.832-7.168-16-16-16h-176zM246.624 640h137.376v137.376l-137.376-137.376zM752 352c-26.464 0-48-21.536-48-48s21.536-48 48-48c26.464 0 48 21.536 48 48s-21.536 48-48 48zM688 480h-416c-8.832 0-16 7.168-16 16s7.168 16 16 16h416c8.832 0 16-7.168 16-16s-7.168-16-16-16zM624 352h-352c-8.832 0-16 7.168-16 16s7.168 16 16 16h352c8.832 0 16-7.168 16-16s-7.168-16-16-16zM400 224h-128c-8.832 0-16 7.168-16 16s7.168 16 16 16h128c8.832 0 16-7.168 16-16s-7.168-16-16-16zM688 608h-192c-8.832 0-16 7.168-16 16s7.168 16 16 16h192c8.832 0 16-7.168 16-16s-7.168-16-16-16z" />
<glyph unicode="&#xe901;" glyph-name="certificate" d="M352.278 310.691l-81.205-197.27 89.76 44.896c5.12 2.592 11.232 2.208 16.032-0.992l79.232-52.8 40.928 109.12c0.256 0.684 0.555 1.34 0.891 1.966l-17.115 51.346c-0.195 0.588-0.354 1.178-0.479 1.77-5.013 3.919-9.679 8.304-14.136 12.489-6.976 6.56-14.88 13.984-20.48 15.456-6.176 1.696-16.576-0.8-26.688-3.136-16.448-3.808-35.136-8.16-51.072 1.056-6.889 3.972-11.855 9.637-15.669 16.099zM335.871 354.824c-1.473 3.464-3.082 6.349-4.917 8.184-4.288 4.288-14.432 7.36-24.224 10.336-16.352 4.928-34.848 10.528-44.16 26.624-9.184 15.904-4.864 34.592-1.024 51.072 2.336 10.112 4.768 20.576 3.104 26.72-1.472 5.568-8.896 13.472-15.456 20.448-11.808 12.576-25.184 26.816-25.184 45.792 0 19.008 13.376 33.248 25.184 45.824 6.56 6.976 13.984 14.88 15.456 20.48 1.664 6.112-0.768 16.576-3.104 26.72-3.84 16.48-8.16 35.168 1.024 51.040 9.312 16.096 27.84 21.696 44.16 26.624 9.792 2.976 19.968 6.048 24.256 10.368 4.288 4.288 7.392 14.432 10.368 24.224 4.928 16.352 10.528 34.848 26.592 44.16 15.872 9.184 34.56 4.864 51.072 1.056 10.112-2.368 20.544-4.832 26.688-3.168 5.6 1.504 13.504 8.96 20.512 15.488 12.576 11.808 26.816 25.184 45.792 25.184s33.248-13.376 45.792-25.184c6.976-6.56 14.88-13.984 20.48-15.488 6.144-1.632 16.576 0.8 26.688 3.168 16.48 3.808 35.168 8.16 51.104-1.056 16.096-9.312 21.664-27.808 26.624-44.16 2.944-9.792 6.016-19.936 10.336-24.256s14.432-7.36 24.256-10.336c16.32-4.928 34.848-10.528 44.16-26.624 9.184-15.904 4.832-34.592 1.024-51.072-2.336-10.112-4.8-20.576-3.136-26.72 1.472-5.568 8.896-13.472 15.488-20.448 11.808-12.576 25.184-26.816 25.184-45.824 0-18.976-13.376-33.216-25.184-45.792-6.592-7.008-14.016-14.912-15.488-20.48-1.664-6.112 0.8-16.576 3.136-26.72 3.808-16.48 8.16-35.168-1.024-51.040-9.312-16.096-27.872-21.696-44.16-26.656-9.824-2.944-19.968-6.048-24.288-10.336-1.814-1.814-3.417-4.677-4.885-8.12l110.667-268.763c2.56-6.144 0.992-13.248-3.872-17.792-3.040-2.816-6.944-4.288-10.912-4.288-2.432 0-4.864 0.544-7.168 1.696l-119.68 59.84-88.288-58.848c-4.16-2.784-9.376-3.424-14.048-1.824-4.736 1.632-8.416 5.344-10.016 10.080l-30.874 92.623-34.95-93.199c-1.696-4.544-5.408-8.096-10.080-9.6-4.608-1.44-9.696-0.768-13.76 1.92l-88.288 58.848-119.68-59.84c-2.304-1.152-4.736-1.696-7.168-1.696-3.968 0-7.872 1.472-10.912 4.288-4.864 4.544-6.432 11.648-3.872 17.792l110.654 268.732zM671.718 310.704c-3.807-6.474-8.762-12.155-15.644-16.144-15.872-9.184-34.56-4.832-51.104-1.024-10.080 2.336-20.512 4.768-26.688 3.136-5.6-1.472-13.504-8.928-20.512-15.456-11.17-10.543-23.711-22.305-39.701-24.754l50.507-151.521 78.56 52.384c4.768 3.2 10.88 3.584 16.032 0.992l89.76-44.896-81.21 197.283zM440.906 329.216c4.384 0 8.736-0.48 13.056-1.632 13.376-3.584 23.936-13.472 34.144-23.040 8.224-7.744 17.568-16.544 23.904-16.544 6.304 0 15.648 8.768 23.872 16.544 10.208 9.568 20.768 19.456 34.144 23.040 13.92 3.744 28.288 0.32 42.208-2.88 10.176-2.368 22.848-5.28 27.808-2.432 5.12 2.976 8.768 15.040 12 25.728 4.128 13.568 8.352 27.648 18.336 37.6 9.984 9.984 24.032 14.24 37.632 18.336 10.688 3.232 22.752 6.88 25.728 12.032 2.848 4.96-0.096 17.632-2.464 27.84-3.2 13.92-6.56 28.352-2.88 42.176 3.616 13.376 13.504 23.904 23.072 34.112 7.744 8.256 16.544 17.6 16.544 23.904 0 6.336-8.8 15.68-16.544 23.904-9.568 10.208-19.456 20.736-23.072 34.112-3.68 13.856-0.32 28.256 2.88 42.208 2.368 10.208 5.312 22.88 2.464 27.808-2.976 5.152-15.040 8.8-25.696 12.032-13.6 4.096-27.68 8.352-37.632 18.336-10.016 9.984-14.24 24.032-18.336 37.632-3.232 10.656-6.88 22.72-12.032 25.696-4.992 2.88-17.632-0.032-27.84-2.432-13.856-3.2-28.256-6.592-42.176-2.848-13.376 3.552-23.936 13.472-34.112 23.040-8.256 7.744-17.6 16.512-23.904 16.512-6.336 0-15.68-8.768-23.872-16.512-10.24-9.568-20.8-19.488-34.176-23.040-13.888-3.744-28.288-0.352-42.176 2.848-10.176 2.368-22.784 5.28-27.808 2.464-5.12-2.976-8.8-15.072-12-25.728-4.128-13.568-8.384-27.648-18.368-37.6-9.984-9.984-24.032-14.24-37.6-18.368-10.688-3.2-22.752-6.848-25.76-12.032-2.848-4.928 0.096-17.6 2.464-27.808 3.232-13.92 6.56-28.352 2.88-42.176-3.584-13.376-13.504-23.936-23.072-34.144-7.744-8.224-16.512-17.568-16.512-23.904 0-6.304 8.768-15.648 16.512-23.872 9.568-10.208 19.488-20.768 23.072-34.112 3.68-13.856 0.352-28.256-2.88-42.208-2.368-10.208-5.312-22.88-2.464-27.84 3.008-5.12 15.072-8.768 25.728-12 13.6-4.096 27.648-8.352 37.6-18.336 10.016-9.984 14.272-24.032 18.368-37.632 3.2-10.656 6.88-22.752 12.032-25.696 4.96-2.912 17.6 0.032 27.84 2.4 9.568 2.24 19.36 4.512 29.088 4.512zM512.001 352.013c-105.888 0-192 86.112-192 192s86.112 192 192 192c105.888 0 192-86.112 192-192s-86.112-192-192-192zM512.001 704.013c-88.224 0-160-71.776-160-160s71.776-160 160-160c88.224 0 160 71.776 160 160s-71.776 160-160 160z" />
<glyph unicode="&#xe902;" glyph-name="chart" d="M304 64h-160c-8.864 0-16 7.040-16 16v384c0 8.96 7.136 16 16 16h160c8.832 0 16-7.040 16-16v-384c0-8.96-7.168-16-16-16zM160 96h128v352h-128v-352zM591.328 64h-160c-8.832 0-16 7.040-16 16v736c0 8.96 7.168 16 16 16h160c8.832 0 16-7.040 16-16v-736c0-8.96-7.168-16-16-16zM447.328 96h128v704h-128v-704zM879.328 64h-160c-8.832 0-16 7.040-16 16v576c0 8.96 7.168 16 16 16h160c8.832 0 16-7.040 16-16v-576c0-8.96-7.168-16-16-16zM735.328 96h128v544h-128v-544z" />
<glyph unicode="&#xe903;" glyph-name="checked-solid" d="M464 288c-4.095 0-8.19 1.562-11.314 4.686l-128 128c-6.248 6.248-6.248 16.379 0 22.627s16.379 6.248 22.627 0l116.686-116.686 244.686 244.686c6.248 6.248 16.379 6.248 22.627 0s6.248-16.379 0-22.627l-256-256c-3.124-3.124-7.219-4.686-11.314-4.686zM528 64c203.241 0 368 164.759 368 368s-164.759 368-368 368c-203.241 0-368-164.759-368-368s164.759-368 368-368z" />
<glyph unicode="&#xe904;" glyph-name="checked" d="M464 288c4.095 0 8.19 1.562 11.314 4.686l256 256c6.248 6.248 6.248 16.379 0 22.627s-16.379 6.248-22.627 0l-244.686-244.686-116.686 116.686c-6.248 6.248-16.379 6.248-22.627 0s-6.248-16.379 0-22.627l128-128c3.124-3.124 7.219-4.686 11.314-4.686zM528 64c-203.241 0-368 164.759-368 368s164.759 368 368 368c203.241 0 368-164.759 368-368s-164.759-368-368-368zM528 96c185.568 0 336 150.432 336 336s-150.432 336-336 336c-185.568 0-336-150.432-336-336s150.432-336 336-336z" />
<glyph unicode="&#xe905;" glyph-name="crew-2" d="M283.324 149.862c1.457 4.81 5.148 8.867 10.276 10.59l85.344 28.416c28.448 11.904 42.016 58.944 45.184 77.792-21.792 20.256-41.92 50.432-41.92 77.728 0 9.248-2.624 12.832-3.616 13.44-4.992 1.248-7.52 4.256-9.44 9.056-1.6 3.936-15.36 39.072-15.36 62.816 0 1.312 0.16 2.624 0.448 3.872 2.048 8.032 6.72 16.128 13.76 21.152v74.528c0 60.128 54.784 144 144 144 87.296 0 111.808-44.608 115.168-67.488 14.816-11.168 28.832-30.464 28.832-76.512v-74.528c7.040-5.024 11.712-13.12 13.76-21.152 0.288-1.248 0.448-2.56 0.448-3.872 0-23.744-13.76-58.88-15.36-62.816-1.92-4.8-5.984-8.352-10.976-9.6 0.544-0.064-2.080-3.648-2.080-12.896 0-27.296-20.128-57.472-41.92-77.728 3.2-18.848 16.864-65.952 46.272-78.176l84.256-28.032c5.128-1.722 8.82-5.78 10.276-10.59 75.439 64.612 123.324 160.519 123.324 267.39 0 194.080-157.92 352-352 352s-352-157.92-352-352c0-106.871 47.885-202.778 123.324-267.39zM307.111 131.186c57.752-41.484 128.522-65.935 204.889-65.935s147.135 24.45 204.887 65.934l-81.943 27.314c-51.136 21.28-67.808 96.448-67.808 114.752 0 4.768 2.112 9.312 5.792 12.352 17.888 14.752 36.864 40.32 36.864 58.784 0 21.536 8.8 33.728 17.408 39.712 4 11.040 10.176 30.336 10.912 43.136-0.288 0.672-0.704 1.376-1.024 1.664-8.8 0-13.088 6.176-13.088 15.008v85.344c0 40.864-12.864 49.056-18.368 52.576-3.488 2.208-9.952 6.304-10.912 14.976-0.192 1.792 0.032 3.808 0.608 5.856-2.176 10.944-19.072 38.592-83.328 38.592-68.384 0-112-66.336-112-112v-85.344c0-8.224-6.176-15.008-14.176-15.904 0.544-12.736 6.88-32.672 10.976-43.904 8.608-5.984 17.408-18.176 17.408-39.712 0-18.464 18.976-44.032 36.864-58.784 3.68-3.040 5.792-7.584 5.792-12.352 0-18.304-16.672-93.472-66.72-114.336l-83.033-27.729zM512 33.251c-211.744 0-384 172.256-384 384s172.256 384 384 384c211.744 0 384-172.256 384-384s-172.256-384-384-384z" />
<glyph unicode="&#xe906;" glyph-name="crew-3" d="M160 641.251h704v48c0 26.464-21.536 48-48 48h-608c-26.464 0-48-21.536-48-48v-48zM160 609.251v-464c0-26.464 21.536-48 48-48h608c26.464 0 48 21.536 48 48v464h-704zM816 65.251h-608c-44.128 0-80 35.872-80 80v544c0 44.128 35.872 80 80 80h608c44.128 0 80-35.872 80-80v-544c0-44.128-35.872-80-80-80zM224 689.251c0-8.832-7.168-16-16-16s-16 7.168-16 16c0 8.832 7.168 16 16 16s16-7.168 16-16zM288 689.251c0-8.832-7.168-16-16-16s-16 7.168-16 16c0 8.832 7.168 16 16 16s16-7.168 16-16zM352 689.251c0-8.832-7.168-16-16-16s-16 7.168-16 16c0 8.832 7.168 16 16 16s16-7.168 16-16zM208.006 193.248c-4.256 0-8.32 1.696-11.328 4.704-3.008 2.976-4.672 7.040-4.672 11.296 0 40.128 27.168 74.944 66.080 84.704l48.032 11.968 2.336 9.376c-11.712 13.44-20.064 30.336-23.648 47.808-9.76 4.224-16.384 12.896-17.696 23.296l-3.456 27.84c-1.088 8.448 1.536 17.024 7.232 23.456 1.856 2.144 4.064 4 6.432 5.504-0.928 8.256-1.856 18.176-1.856 23.456 0 26.784 7.744 62.272 73.6 64.576 22.336 14.016 45.344 14.016 55.52 14.016 34.656 0 51.904-15.296 60.288-28.128 17.664-26.976 6.496-45.728-1.76-54.464l-2.88-2.944-0.864-16.992c2.176-1.44 4.128-3.168 5.856-5.12 5.6-6.4 8.192-14.944 7.104-23.392l-3.456-27.776c-1.248-10.080-7.456-18.496-16-22.912-3.68-18.24-12.544-35.808-24.992-49.568l1.984-8.032 48.032-11.968c38.912-9.76 66.112-44.576 66.112-84.672 0-8.832-7.168-16-16-16l-320-0.032zM226.342 225.28l283.328-0.032c-5.504 18.272-20.224 32.8-39.52 37.632l-57.344 14.304c-5.76 1.44-10.208 5.92-11.648 11.648l-6.528 26.176c-1.44 5.728 0.416 11.84 4.832 15.776 12.864 11.52 21.728 29.44 23.136 46.72 0.64 8.32 7.584 14.72 15.936 14.72l2.048 25.952c-4.32 0.064-7.424 0.704-10.432 3.84-2.976 3.168-3.488 6.24-3.264 10.592l1.664 34.816c0.192 3.968 1.856 7.744 4.672 10.528l6.944 6.944c1.76 1.92 4.416 4.768-2.080 14.72-2.208 3.392-8.896 13.632-33.504 13.632-8.384 0-25.92 0-41.184-10.912-2.688-1.92-5.856-2.976-9.152-3.008-46.784-0.448-46.784-16.096-46.784-32.672 0-5.632 1.952-23.136 3.168-32.8 0.544-4.576-0.864-9.152-3.872-12.608-3.040-3.424-7.424-5.408-12-5.408l4.128-25.472c8.32 0 15.456-4.544 16.128-12.896 1.344-16.96 9.568-34.112 22.048-45.824 4.256-3.968 5.984-9.888 4.608-15.52l-6.816-27.296c-1.44-5.728-5.92-10.208-11.68-11.648l-57.344-14.304c-19.232-4.832-33.984-19.36-39.488-37.6zM816 481.251h-224c-8.832 0-16 7.168-16 16s7.168 16 16 16h224c8.832 0 16-7.168 16-16s-7.168-16-16-16zM816 385.251h-224c-8.832 0-16 7.168-16 16s7.168 16 16 16h224c8.832 0 16-7.168 16-16s-7.168-16-16-16zM816 289.251h-224c-8.832 0-16 7.168-16 16s7.168 16 16 16h224c8.832 0 16-7.168 16-16s-7.168-16-16-16zM720 193.251h-128c-8.832 0-16 7.168-16 16s7.168 16 16 16h128c8.832 0 16-7.168 16-16s-7.168-16-16-16z" />
<glyph unicode="&#xe907;" glyph-name="crew" d="M144.003 129.248c-4.256 0-8.32 1.696-11.328 4.704-2.976 2.976-4.672 7.040-4.672 11.296 0 63.072 42.688 117.792 103.84 133.056l88.192 22.048 7.072 28.288c-21.952 23.36-37.216 54.24-42.56 85.824-15.168 4.16-26.88 17.088-28.928 33.344l-5.888 47.328c-1.44 11.232 2.048 22.624 9.568 31.104 4.032 4.608 9.024 8.096 14.528 10.4-1.696 14.688-3.936 36-3.936 46.176 0 44.704 13.472 96.096 117.344 98.688 36.064 23.744 74.304 23.744 90.976 23.744 43.232 0 74.528-14.368 93.056-42.72 24.608-37.536 12.672-63.584-1.696-78.848l-7.776-7.808-1.952-40.032c4.896-2.272 9.344-5.632 12.96-9.792 7.424-8.448 10.88-19.744 9.472-30.912l-5.888-47.328c-1.888-15.2-12.288-27.52-26.080-32.48-5.376-32.96-21.504-64.992-44.832-88.864l6.496-26.112 88.192-22.048c61.152-15.264 103.84-69.952 103.84-132.992 0-8.832-7.168-16-16-16l-544-0.064zM161.219 161.312l509.568-0.064c-6.304 41.376-36.8 75.616-78.368 86.016l-97.504 24.352c-5.76 1.44-10.24 5.92-11.68 11.68l-11.072 44.416c-1.44 5.76 0.416 11.808 4.832 15.776 24.32 21.824 40.352 54.304 42.944 86.816 0.64 8.352 7.584 14.752 15.936 14.752 4.992 0 8.288 2.88 8.736 6.688l5.92 47.328c0.384 2.944-0.96 4.992-1.824 5.952-0.832 0.96-2.688 2.56-5.664 2.592-4.352 0.064-8.48 1.888-11.488 5.024-2.976 3.168-4.512 7.424-4.32 11.776l2.88 59.168c0.192 3.968 1.856 7.744 4.64 10.528l11.808 11.872c6.72 7.072 12 17.6-2.016 39.008-12.288 18.752-34.592 28.256-66.336 28.256-23.552 0-51.072-2.464-76.544-20.64-2.688-1.952-5.888-2.976-9.152-3.008-90.624-0.896-90.624-37.44-90.624-66.784 0-11.36 3.968-45.088 5.472-57.12 0.576-4.576-0.832-9.12-3.872-12.608-3.008-3.424-7.392-5.408-12-5.408-5.472 0-7.328-1.632-8.192-2.592-0.832-0.96-2.208-3.040-1.824-5.984l5.888-47.36c0.48-3.808 3.776-6.688 7.616-6.688h3.84c8.352 0 15.264-6.4 15.936-14.752 2.496-31.52 17.824-63.36 40.992-85.12 4.256-3.968 6.016-9.888 4.608-15.52l-11.616-46.368c-1.44-5.76-5.888-10.24-11.648-11.68l-97.504-24.352c-41.6-10.4-72.064-44.608-78.368-85.952zM752 129.251v32h110.784c-6.304 41.376-36.8 75.616-78.368 86.016l-97.504 24.352c-5.76 1.44-10.24 5.92-11.648 11.648l-10.112 40.416c-1.088 4.416-0.288 9.056 2.272 12.832s6.56 6.272 11.040 6.88c37.568 5.248 64.64 13.92 80.864 20.32-15.936 23.104-37.248 70.688-37.248 159.968 0 80-15.712 125.92-43.104 125.92h-11.84c-4.256 0-8.32 1.664-11.328 4.672-14.048 14.048-19.68 18.496-44.832 18.88l0.032 0.48c-4.864-0.064-9.728 1.792-12.736 6.112-3.36 4.768-3.968 11.040-1.408 16.32 2.752 5.632 7.488 9.344 14.592 9.088 31.008-0.48 45.056-7.392 62.176-23.552h5.344c49.824 0 75.104-53.12 75.104-157.92 0-118.272 40.704-152.576 41.152-152.928 4.064-3.328 6.368-8.48 5.984-13.696s-3.2-10.016-7.68-12.704c-1.408-0.832-32.736-19.072-93.088-29.856l3.52-14.144 88.192-22.048c61.152-15.264 103.84-69.952 103.84-132.992 0-8.832-7.168-16-16-16l-128-0.064z" />
<glyph unicode="&#xe908;" glyph-name="cross-circle-solid" d="M528 409.373l-116.686-116.686c-6.248-6.248-16.379-6.248-22.627 0s-6.248 16.379 0 22.627l116.686 116.686-116.686 116.686c-6.248 6.248-6.248 16.379 0 22.627s16.379 6.248 22.627 0l116.686-116.686 116.686 116.686c6.248 6.248 16.379 6.248 22.627 0s6.248-16.379 0-22.627l-116.686-116.686 116.686-116.686c6.248-6.248 6.248-16.379 0-22.627s-16.379-6.248-22.627 0l-116.686 116.686zM528 64c203.241 0 368 164.759 368 368s-164.759 368-368 368c-203.241 0-368-164.759-368-368s164.759-368 368-368z" />
<glyph unicode="&#xe909;" glyph-name="cross-circle" d="M528 409.373l116.686-116.686c6.248-6.248 16.379-6.248 22.627 0s6.248 16.379 0 22.627l-116.686 116.686 116.686 116.686c6.248 6.248 6.248 16.379 0 22.627s-16.379 6.248-22.627 0l-116.686-116.686-116.686 116.686c-6.248 6.248-16.379 6.248-22.627 0s-6.248-16.379 0-22.627l116.686-116.686-116.686-116.686c-6.248-6.248-6.248-16.379 0-22.627s16.379-6.248 22.627 0l116.686 116.686zM528 64c-203.241 0-368 164.759-368 368s164.759 368 368 368c203.241 0 368-164.759 368-368s-164.759-368-368-368zM528 96c185.568 0 336 150.432 336 336s-150.432 336-336 336c-185.568 0-336-150.432-336-336s150.432-336 336-336z" />
<glyph unicode="&#xe90a;" glyph-name="cross-lg-bold" d="M466.745 448l-329.373 329.373c-12.497 12.497-12.497 32.758 0 45.255s32.758 12.497 45.255 0l329.373-329.373 329.373 329.373c12.497 12.497 32.758 12.497 45.255 0s12.497-32.758 0-45.255l-329.373-329.373 329.373-329.373c12.497-12.497 12.497-32.758 0-45.255s-32.758-12.497-45.255 0l-329.373 329.373-329.373-329.373c-12.497-12.497-32.758-12.497-45.255 0s-12.497 32.758 0 45.255l329.373 329.373z" />
<glyph unicode="&#xe90b;" glyph-name="cross-lg" d="M489.373 448l-356.686 356.686c-6.248 6.248-6.248 16.379 0 22.627s16.379 6.248 22.627 0l356.686-356.686 356.686 356.686c6.248 6.248 16.379 6.248 22.627 0s6.248-16.379 0-22.627l-356.686-356.686 356.686-356.686c6.248-6.248 6.248-16.379 0-22.627s-16.379-6.248-22.627 0l-356.686 356.686-356.686-356.686c-6.248-6.248-16.379-6.248-22.627 0s-6.248 16.379 0 22.627l356.686 356.686z" />
<glyph unicode="&#xe90c;" glyph-name="down-arrow-bold" d="M490.223 264.551l-351.748 319.771c-13.077 11.888-14.041 32.127-2.153 45.204s32.127 14.041 45.204 2.153l330.474-300.431 330.474 300.431c13.077 11.888 33.315 10.924 45.204-2.153s10.924-33.315-2.153-45.204l-351.748-319.771c-6.068-5.648-13.858-8.525-21.68-8.551-8.016 0.026-15.806 2.903-21.874 8.551z" />
<glyph unicode="&#xe90d;" glyph-name="file-stack" d="M224.004 624.331c0.087 4.049 1.771 8.065 4.668 10.869l1.328 1.328c-3.578-2.848-5.898-7.212-5.997-12.197-0.002-0.11-0.004-0.221-0.004-0.331v-416c0-8.96 7.168-16 16-16h48v-48c0-8.96 7.168-16 16-16h48v-48c0-8.96 7.168-16 16-16h448c8.832 0 16 7.040 16 16v608c0 8.96-7.168 16-16 16h-48v48c0 8.96-7.168 16-16 16h-48v48c0 8.96-7.168 16-16 16h-256c-1.026 0-2.041-0.093-3.032-0.279zM425.683 830.721c-2.452-1.043-4.587-2.678-6.224-4.735l1.214 1.214c1.456 1.548 3.158 2.722 5.011 3.521zM448 800h224v-576h-416v384h176c8.832 0 16 7.040 16 16v176zM416 777.364v-137.364h-137.292l137.292 137.364zM768 672h32v-576h-416v32h368c8.832 0 16 7.040 16 16v528zM320 192h368c8.832 0 16 7.040 16 16v528h32v-576h-416v32z" />
<glyph unicode="&#xe90e;" glyph-name="filter-solid" d="M528 64c203.241 0 368 164.759 368 368s-164.759 368-368 368c-203.241 0-368-164.759-368-368s164.759-368 368-368zM352 496c0 8.837 7.352 16 16.039 16h319.921c8.858 0 16.039-7.422 16.039-16 0-8.837-7.352-16-16.039-16h-319.921c-8.858 0-16.039 7.422-16.039 16zM384 400c0 8.837 7.119 16 16.309 16h255.381c9.007 0 16.309-7.422 16.309-16 0-8.837-7.119-16-16.309-16h-255.381c-9.007 0-16.309 7.422-16.309 16zM448 304c0 8.837 6.875 16 15.926 16h128.147c8.796 0 15.926-7.422 15.926-16 0-8.837-6.875-16-15.926-16h-128.147c-8.796 0-15.926 7.422-15.926 16z" />
<glyph unicode="&#xe90f;" glyph-name="hexagon" d="M192 281.28l320-182.848 320 182.848v333.44l-320 182.848-320-182.848v-333.44zM512 64c-2.72 0-5.472 0.704-7.936 2.112l-336 192c-4.992 2.848-8.064 8.16-8.064 13.888v352c0 5.728 3.072 11.040 8.064 13.888l336 192c4.896 2.816 10.976 2.816 15.872 0l336-192c4.992-2.848 8.064-8.16 8.064-13.888v-352c0-5.728-3.072-11.040-8.064-13.888l-336-192c-2.464-1.408-5.216-2.112-7.936-2.112v0z" />
<glyph unicode="&#xe910;" glyph-name="left-arrow-bold" d="M395.247 448l300.431 330.474c11.888 13.077 10.924 33.315-2.153 45.204s-33.315 10.924-45.204-2.153l-319.771-351.748c-5.648-6.068-8.525-13.858-8.551-21.68 0.026-8.016 2.903-15.806 8.551-21.874l319.771-351.748c11.888-13.077 32.127-14.041 45.204-2.153s14.041 32.127 2.153 45.204l-300.431 330.474z" />
<glyph unicode="&#xe911;" glyph-name="pin" d="M442.6 189.278c-117.778-9.148-154.6-36.164-154.6-45.278 0-14.080 84.096-48 240-48s240 33.92 240 48c0 9.114-36.822 36.129-154.6 45.278-40.906-36.426-73.314-56.724-77.016-59.038-2.56-1.6-5.472-2.24-8.384-2.24s-5.824 0.64-8.384 2.24c-3.702 2.314-36.11 22.612-77.016 59.038zM411.932 218.293c-72.921 73.328-155.932 190.079-155.932 341.707 0 150.080 122.016 272 272 272s272-121.92 272-272c0-151.628-83.011-268.38-155.932-341.707 64.072-7.267 155.932-26.248 155.932-74.293 0-63.36-177.92-80-272-80s-272 16.64-272 80c0 48.045 91.86 67.025 155.932 74.293zM528 800c-132.352 0-240-107.52-240-240 0-220.48 196.608-367.040 240-396.8 43.392 29.76 240 176.32 240 396.8 0 132.48-107.648 240-240 240zM528 384c-97.056 0-176 79.040-176 176s78.944 176 176 176c97.056 0 176-79.040 176-176s-78.944-176-176-176zM528 704c-79.392 0-144-64.64-144-144s64.608-144 144-144c79.392 0 144 64.64 144 144s-64.608 144-144 144z" />
<glyph unicode="&#xe912;" glyph-name="plus-solid" d="M544 448h176.2c8.726 0 15.8-7.422 15.8-16 0-8.837-7.22-16-15.8-16h-176.2v-176.2c0-8.726-7.422-15.8-16-15.8-8.837 0-16 7.22-16 15.8v176.2h-176.2c-8.726 0-15.8 7.422-15.8 16 0 8.837 7.22 16 15.8 16h176.2v176.2c0 8.726 7.422 15.8 16 15.8 8.837 0 16-7.22 16-15.8v-176.2zM528 64c203.241 0 368 164.759 368 368s-164.759 368-368 368c-203.241 0-368-164.759-368-368s164.759-368 368-368z" />
<glyph unicode="&#xe913;" glyph-name="plus" d="M544 448h176.2c8.726 0 15.8-7.422 15.8-16 0-8.837-7.22-16-15.8-16h-176.2v-176.2c0-8.726-7.422-15.8-16-15.8-8.837 0-16 7.22-16 15.8v176.2h-176.2c-8.726 0-15.8 7.422-15.8 16 0 8.837 7.22 16 15.8 16h176.2v176.2c0 8.726 7.422 15.8 16 15.8 8.837 0 16-7.22 16-15.8v-176.2zM528 64c-203.241 0-368 164.759-368 368s164.759 368 368 368c203.241 0 368-164.759 368-368s-164.759-368-368-368zM528 96c185.568 0 336 150.432 336 336s-150.432 336-336 336c-185.568 0-336-150.432-336-336s150.432-336 336-336z" />
<glyph unicode="&#xe914;" glyph-name="right-arrow-bold" d="M628.753 448l-300.431 330.474c-11.888 13.077-10.924 33.315 2.153 45.204s33.315 10.924 45.204-2.153l319.771-351.748c5.648-6.068 8.525-13.858 8.551-21.68-0.026-8.016-2.903-15.806-8.551-21.874l-319.771-351.748c-11.888-13.077-32.127-14.041-45.204-2.153s-14.041 32.127-2.153 45.204l300.431 330.474z" />
<glyph unicode="&#xe915;" glyph-name="settings-solid" d="M256 384c53.019 0 96 42.981 96 96s-42.981 96-96 96c-53.019 0-96-42.981-96-96s42.981-96 96-96zM512 384c53.019 0 96 42.981 96 96s-42.981 96-96 96c-53.019 0-96-42.981-96-96s42.981-96 96-96zM768 384c53.019 0 96 42.981 96 96s-42.981 96-96 96c-53.019 0-96-42.981-96-96s42.981-96 96-96z" />
<glyph unicode="&#xe916;" glyph-name="settings" d="M256 384c-53.019 0-96 42.981-96 96s42.981 96 96 96c53.019 0 96-42.981 96-96s-42.981-96-96-96zM256 416c35.346 0 64 28.654 64 64s-28.654 64-64 64c-35.346 0-64-28.654-64-64s28.654-64 64-64zM512 384c-53.019 0-96 42.981-96 96s42.981 96 96 96c53.019 0 96-42.981 96-96s-42.981-96-96-96zM512 416c35.346 0 64 28.654 64 64s-28.654 64-64 64c-35.346 0-64-28.654-64-64s28.654-64 64-64zM768 384c-53.019 0-96 42.981-96 96s42.981 96 96 96c53.019 0 96-42.981 96-96s-42.981-96-96-96zM768 416c35.346 0 64 28.654 64 64s-28.654 64-64 64c-35.346 0-64-28.654-64-64s28.654-64 64-64z" />
<glyph unicode="&#xe917;" glyph-name="ship" d="M512 704h160v64h-160v-64zM480 704v64h-96v-64h96zM608 512v64h-64v-64h64zM640 512h96v64h-96v-64zM608 672h-64v-64h64v64zM640 672v-64h96v64h-96zM608 462.67v17.33h-64v-3.108l64-14.222zM640 455.559l96-21.333v45.774h-96v-24.441zM512 512v64h-96v-64h96zM512 672h-96v-64h96v64zM512 476.892v3.108h-96v-24.441l96 21.333zM384 512v64h-64v-64h64zM384 672h-64v-64h64v64zM384 448.448v31.552h-64v-45.774l64 14.222zM704 704h48c8.832 0 16-7.040 16-16v-260.885l51.456-11.435c4.608-0.96 8.512-4.16 10.688-8.32 2.208-4.16 2.464-8.96 0.704-13.44l-91.344-228.36c6.374-3.497 13.701-5.56 23.024-5.56 22.336 0 33.216 11.84 46.944 26.88 15.232 16.32 34.112 37.12 70.528 37.12 8.832 0 16-7.040 16-16s-7.168-16-16-16c-22.336 0-33.216-11.84-46.944-26.88-15.2-16.64-34.112-37.12-70.528-37.12s-55.328 20.48-70.528 37.12c-13.76 15.040-24.64 26.88-46.944 26.88s-33.12-11.84-46.848-26.88c-15.147-16.582-33.947-36.976-70.049-37.119-0.053-0.001-0.106-0.001-0.159-0.001-0.037 0-0.075 0-0.112 0s-0.075 0-0.112 0c-36.384 0-55.264 20.48-70.432 37.12-13.728 15.040-24.576 26.88-46.816 26.88-22.272 0-33.12-11.84-46.848-26.88-15.168-16.64-34.048-37.12-70.4-37.12-36.384 0-55.264 20.48-70.432 37.12-13.728 15.040-24.576 26.88-46.848 26.88-8.832 0-16 7.040-16 16s7.168 16 16 16c36.352 0 55.264-20.8 70.432-37.12 13.728-15.040 24.576-26.88 46.848-26.88 9.396 0 16.759 2.113 23.165 5.689l-91.293 228.231c-1.76 4.48-1.504 9.28 0.704 13.44 2.176 4.16 6.112 7.36 10.688 8.32l51.456 11.435v260.885c0 8.96 7.168 16 16 16h48v80c0 8.96 7.168 16 16 16h320c8.832 0 16-7.040 16-16v-80zM714.099 188.44l80.045 200.040-266.144 59.2-266.144-59.2 79.938-199.773c14.89 16.002 33.695 35.293 68.734 35.293 36.352 0 55.232-20.8 70.4-37.12 10.034-10.993 18.53-20.277 31.072-24.477v237.597c0 8.96 7.168 16 16 16s16-7.040 16-16v-237.444c12.298 4.269 20.71 13.462 30.624 24.324 15.168 16.32 34.080 37.12 70.432 37.12 35.234 0 54.083-19.506 69.043-35.56zM762.528 64c-36.416 0-55.328 20.48-70.528 37.12-13.76 15.040-24.64 26.88-46.944 26.88s-33.12-11.84-46.848-26.88c-15.2-16.64-34.080-37.12-70.432-37.12-36.384 0-55.264 20.48-70.432 37.12-13.728 15.040-24.576 26.88-46.816 26.88-22.272 0-33.12-11.84-46.848-26.88-15.168-16.64-34.048-37.12-70.4-37.12-36.384 0-55.264 20.48-70.432 37.12-13.728 15.040-24.576 26.88-46.848 26.88-8.832 0-16 7.040-16 16s7.168 16 16 16c36.352 0 55.264-20.8 70.432-37.12 13.728-15.040 24.576-26.88 46.848-26.88 22.24 0 33.088 11.84 46.816 26.88 15.168 16.32 34.048 37.12 70.432 37.12 36.352 0 55.232-20.8 70.4-37.12 13.728-15.040 24.576-26.88 46.848-26.88s33.12 11.84 46.848 26.88c15.168 16.32 34.080 37.12 70.432 37.12 36.384 0 55.296-20.8 70.496-37.12 13.76-15.040 24.64-26.88 46.976-26.88s33.216 11.84 46.944 26.88c15.232 16.32 34.112 37.12 70.528 37.12 8.832 0 16-7.040 16-16s-7.168-16-16-16c-22.336 0-33.216-11.84-46.944-26.88-15.2-16.64-34.112-37.12-70.528-37.12z" />
<glyph unicode="&#xe918;" glyph-name="trash-solid" d="M256 640v-464c0-61.76 50.24-112 112-112h288c61.76 0 112 50.24 112 112v464h-512zM784 672h-544c-8.832 0-16 5.973-16 13.333v26.667c0 36.747 35.872 66.667 80 66.667h86.112l9.888 16.48c13.664 22.747 41.056 36.853 71.552 36.853h80.864c30.496 0 57.92-14.107 71.552-36.853l9.92-16.48h86.112c44.128 0 80-29.92 80-66.667v-26.667c0-7.36-7.168-13.333-16-13.333zM368 160c-8.832 0-16 7.168-16 16v384c0 8.832 7.168 16 16 16s16-7.168 16-16v-384c0-8.832-7.168-16-16-16zM464 160c-8.832 0-16 7.168-16 16v384c0 8.832 7.168 16 16 16s16-7.168 16-16v-384c0-8.832-7.168-16-16-16zM560 160c-8.832 0-16 7.168-16 16v384c0 8.832 7.168 16 16 16s16-7.168 16-16v-384c0-8.832-7.168-16-16-16zM656 160c-8.832 0-16 7.168-16 16v384c0 8.832 7.168 16 16 16s16-7.168 16-16v-384c0-8.832-7.168-16-16-16z" />
<glyph unicode="&#xe919;" glyph-name="trash" d="M256 640h-16c-8.832 0-16 7.168-16 16v32c0 44.096 35.872 80 80 80h86.112l9.888 19.776c13.664 27.296 41.056 44.224 71.552 44.224h80.864c30.496 0 57.92-16.928 71.552-44.224l9.92-19.776h86.112c44.128 0 80-35.904 80-80v-32c0-8.832-7.168-16-16-16h-16v-464c0-61.76-50.24-112-112-112h-288c-61.76 0-112 50.24-112 112v464zM256 672h512v16c0 26.464-21.536 48-48 48h-96c-6.048 0-11.584 3.424-14.304 8.832l-14.304 28.64c-8.192 16.352-24.64 26.528-42.944 26.528h-80.864c-18.336 0-34.784-10.176-42.944-26.528l-14.336-28.64c-2.72-5.408-8.256-8.832-14.304-8.832h-96c-26.464 0-48-21.536-48-48v-16zM288 640v-464c0-44.096 35.872-80 80-80h288c44.128 0 80 35.904 80 80v464h-448zM368 160c-8.832 0-16 7.168-16 16v384c0 8.832 7.168 16 16 16s16-7.168 16-16v-384c0-8.832-7.168-16-16-16zM464 160c-8.832 0-16 7.168-16 16v384c0 8.832 7.168 16 16 16s16-7.168 16-16v-384c0-8.832-7.168-16-16-16zM560 160c-8.832 0-16 7.168-16 16v384c0 8.832 7.168 16 16 16s16-7.168 16-16v-384c0-8.832-7.168-16-16-16zM656 160c-8.832 0-16 7.168-16 16v384c0 8.832 7.168 16 16 16s16-7.168 16-16v-384c0-8.832-7.168-16-16-16z" />
<glyph unicode="&#xe91a;" glyph-name="up-arrow-bold" d="M490.223 631.449l-351.748-319.771c-13.077-11.888-14.041-32.127-2.153-45.204s32.127-14.041 45.204-2.153l330.474 300.431 330.474-300.431c13.077-11.888 33.315-10.924 45.204 2.153s10.924 33.315-2.153 45.204l-351.748 319.771c-6.068 5.648-13.858 8.525-21.68 8.551-8.016-0.026-15.806-2.903-21.874-8.551z" />
<glyph unicode="&#xe91b;" glyph-name="filter" d="M528 64c-203.241 0-368 164.759-368 368s164.759 368 368 368c203.241 0 368-164.759 368-368s-164.759-368-368-368zM528 96c185.568 0 336 150.432 336 336s-150.432 336-336 336c-185.568 0-336-150.432-336-336s150.432-336 336-336zM352 496c0 8.837 7.352 16 16.039 16h319.921c8.858 0 16.039-7.422 16.039-16 0-8.837-7.352-16-16.039-16h-319.921c-8.858 0-16.039 7.422-16.039 16zM384 400c0 8.837 7.119 16 16.309 16h255.381c9.007 0 16.309-7.422 16.309-16 0-8.837-7.119-16-16.309-16h-255.381c-9.007 0-16.309 7.422-16.309 16zM448 304c0 8.837 6.875 16 15.926 16h128.147c8.796 0 15.926-7.422 15.926-16 0-8.837-6.875-16-15.926-16h-128.147c-8.796 0-15.926 7.422-15.926 16z" />
<glyph unicode="&#xe91c;" glyph-name="settings-2-solid" d="M575.593 64c17.248 0 31.84 12.8 33.856 29.44l12.736 88.64c16.8 7.68 33.28 16.96 49.888 28.8l83.52-33.28c16.096-6.4 34.208 0.32 42.112 14.72l73.856 128c8.16 14.72 4.512 33.28-8.672 43.52l-70.528 55.36c0.896 8.32 1.632 18.24 1.632 28.8 0 10.88-0.736 20.8-1.632 29.12l70.592 55.36c13.12 10.24 16.768 28.8 8.384 44.16l-73.408 126.72c-7.968 14.72-25.984 21.44-42.464 15.36l-83.296-33.28c-15.904 11.2-32.64 21.12-49.984 28.8l-12.704 88.32c-2.080 16.96-16.64 29.44-33.888 29.44h-147.2c-17.248 0-31.808-12.48-33.856-29.12l-12.736-88.64c-16.768-7.36-33.248-16.96-49.888-29.12l-83.52 33.6c-16.032 6.4-34.176-0.32-42.112-15.040l-73.568-127.040c-8.672-14.72-5.088-33.6 8.384-44.16l70.56-55.36c-1.12-10.88-1.664-20.16-1.664-29.12 0-8.64 0.544-18.24 1.664-28.8l-70.624-55.36c-13.12-10.24-16.768-28.8-8.384-44.16l73.408-126.72c8-14.72 25.952-21.44 42.464-15.36l83.296 33.28c15.904-11.2 32.64-21.12 49.984-28.8l12.704-88.32c2.048-16.96 16.64-29.76 33.888-29.76h147.2zM501.993 288c-88.224 0-160 72-160 160 0 88.32 71.776 160 160 160s160-71.68 160-160c0-88-71.776-160-160-160zM501.993 576c-70.592 0-128-57.28-128-128 0-70.4 57.408-128 128-128s128 57.6 128 128c0 70.72-57.408 128-128 128z" />
<glyph unicode="&#xe91d;" glyph-name="settings-2" d="M501.993 576c-70.592 0-128-57.28-128-128 0-70.4 57.408-128 128-128s128 57.6 128 128c0 70.72-57.408 128-128 128v0zM501.993 288c-88.224 0-160 72-160 160 0 88.32 71.776 160 160 160s160-71.68 160-160c0-88-71.776-160-160-160v0zM334.185 245.12c3.456 0 6.912-0.96 9.76-3.2 18.368-14.080 38.048-25.6 58.496-33.92 5.248-2.24 8.96-7.040 9.76-12.48l14.016-97.6 149.376-1.92 16.192 99.52c0.8 5.44 4.512 10.24 9.76 12.48 19.744 8 38.912 19.2 58.656 33.92 4.48 3.52 10.336 4.16 15.584 2.24l91.616-36.8 76.256 128.32c0.448 0.96 0.352 2.56-0.512 3.2l-77.568 60.48c-4.416 3.52-6.72 9.28-6.016 14.72 1.12 8.96 2.432 21.12 2.432 33.92 0 13.12-1.312 25.28-2.432 34.24-0.704 5.44 1.6 11.2 6.016 14.72l77.632 60.48c0.8 0.64 0.896 2.24 0.224 3.52l-73.408 126.72-94.24-35.52c-5.28-1.92-11.232-1.28-15.744 2.24-18.368 14.080-38.048 25.6-58.496 33.92-5.248 2.24-8.96 7.040-9.76 12.48l-14.016 97.6-149.376 1.6-16.192-99.2c-0.8-5.44-4.512-10.24-9.76-12.48-19.68-8-38.848-19.2-58.656-33.92-4.448-3.52-10.336-4.16-15.584-2.24l-91.616 36.8-76.256-128.64 78.080-63.36c4.416-3.52 6.72-9.28 6.016-14.72-1.664-13.44-2.432-24.32-2.432-34.24 0-9.6 0.768-20.48 2.432-33.92 0.704-5.44-1.6-11.2-6.016-14.72l-77.632-60.48c-0.768-0.64-0.896-2.24-0.224-3.52l73.408-126.72 94.24 35.52c1.952 0.64 3.968 0.96 5.984 0.96v0zM575.593 64h-147.2c-17.248 0-31.84 12.8-33.888 29.76l-12.704 88.32c-17.344 7.68-34.080 17.6-49.984 28.8l-83.296-33.28c-16.512-6.080-34.464 0.64-42.464 15.36l-73.408 126.72c-8.384 15.36-4.736 33.92 8.384 44.16l70.624 55.36c-1.12 10.56-1.664 20.16-1.664 28.8 0 8.96 0.544 18.24 1.664 29.12l-70.56 55.36c-13.472 10.56-17.056 29.44-8.384 44.16l73.568 127.040c7.936 14.72 26.080 21.44 42.112 15.040l83.52-33.6c16.64 12.16 33.12 21.76 49.888 29.12l12.736 88.64c2.048 16.64 16.608 29.12 33.856 29.12h147.2c17.248 0 31.808-12.48 33.888-29.44l12.704-88.32c17.344-7.68 34.080-17.6 49.984-28.8l83.296 33.28c16.48 6.080 34.496-0.64 42.464-15.36l73.408-126.72c8.384-15.36 4.736-33.92-8.384-44.16l-70.592-55.36c0.896-8.32 1.632-18.24 1.632-29.12 0-10.56-0.736-20.48-1.632-28.8l70.528-55.36c13.184-10.24 16.832-28.8 8.672-43.52l-73.856-128c-7.904-14.4-26.016-21.12-42.112-14.72l-83.52 33.28c-16.608-11.84-33.088-21.12-49.888-28.8l-12.736-88.64c-2.016-16.64-16.608-29.44-33.856-29.44v0z" />
<glyph unicode="&#xe91e;" glyph-name="cross-circle-bold-solid" d="M512 402.745l-105.373-105.373c-12.497-12.497-32.758-12.497-45.255 0s-12.497 32.758 0 45.255l105.373 105.373-105.373 105.373c-12.497 12.497-12.497 32.758 0 45.255s32.758 12.497 45.255 0l105.373-105.373 105.373 105.373c12.497 12.497 32.758 12.497 45.255 0s12.497-32.758 0-45.255l-105.373-105.373 105.373-105.373c12.497-12.497 12.497-32.758 0-45.255s-32.758-12.497-45.255 0l-105.373 105.373zM512 64c212.077 0 384 171.923 384 384s-171.923 384-384 384c-212.077 0-384-171.923-384-384s171.923-384 384-384z" />
<glyph unicode="&#xe91f;" glyph-name="cross-circle-bold" d="M512 402.745l105.373-105.373c12.497-12.497 32.758-12.497 45.255 0s12.497 32.758 0 45.255l-105.373 105.373 105.373 105.373c12.497 12.497 12.497 32.758 0 45.255s-32.758 12.497-45.255 0l-105.373-105.373-105.373 105.373c-12.497 12.497-32.758 12.497-45.255 0s-12.497-32.758 0-45.255l105.373-105.373-105.373-105.373c-12.497-12.497-12.497-32.758 0-45.255s32.758-12.497 45.255 0l105.373 105.373zM512 64c-212.077 0-384 171.923-384 384s171.923 384 384 384c212.077 0 384-171.923 384-384s-171.923-384-384-384zM512 128c176.731 0 320 143.269 320 320s-143.269 320-320 320c-176.731 0-320-143.269-320-320s143.269-320 320-320z" />
<glyph unicode="&#xe920;" glyph-name="plus-bold-solid" d="M544 480h127.921c17.717 0 32.079-14.204 32.079-32 0-17.673-14.584-32-32.079-32h-127.921v-127.921c0-17.717-14.204-32.079-32-32.079-17.673 0-32 14.584-32 32.079v127.921h-127.921c-17.717 0-32.079 14.204-32.079 32 0 17.673 14.584 32 32.079 32h127.921v127.921c0 17.717 14.204 32.079 32 32.079 17.673 0 32-14.584 32-32.079v-127.921zM512 64c212.077 0 384 171.923 384 384s-171.923 384-384 384c-212.077 0-384-171.923-384-384s171.923-384 384-384z" />
<glyph unicode="&#xe921;" glyph-name="plus-bold" d="M544 480h127.921c17.717 0 32.079-14.204 32.079-32 0-17.673-14.584-32-32.079-32h-127.921v-127.921c0-17.717-14.204-32.079-32-32.079-17.673 0-32 14.584-32 32.079v127.921h-127.921c-17.717 0-32.079 14.204-32.079 32 0 17.673 14.584 32 32.079 32h127.921v127.921c0 17.717 14.204 32.079 32 32.079 17.673 0 32-14.584 32-32.079v-127.921zM512 64c-212.077 0-384 171.923-384 384s171.923 384 384 384c212.077 0 384-171.923 384-384s-171.923-384-384-384zM512 128c176.731 0 320 143.269 320 320s-143.269 320-320 320c-176.731 0-320-143.269-320-320s143.269-320 320-320z" />
<glyph unicode="&#xe922;" glyph-name="minus-bold-solid" d="M512 64c212.077 0 384 171.923 384 384s-171.923 384-384 384c-212.077 0-384-171.923-384-384s171.923-384 384-384zM671.921 480c17.717 0 32.079-14.204 32.079-32 0-17.673-14.584-32-32.079-32h-319.842c-17.717 0-32.079 14.204-32.079 32 0 17.673 14.584 32 32.079 32h319.842z" />
<glyph unicode="&#xe923;" glyph-name="minus-bold" d="M512 64c-212.077 0-384 171.923-384 384s171.923 384 384 384c212.077 0 384-171.923 384-384s-171.923-384-384-384zM512 128c176.731 0 320 143.269 320 320s-143.269 320-320 320c-176.731 0-320-143.269-320-320s143.269-320 320-320zM671.921 480c17.717 0 32.079-14.204 32.079-32 0-17.673-14.584-32-32.079-32h-319.842c-17.717 0-32.079 14.204-32.079 32 0 17.673 14.584 32 32.079 32h319.842z" />
<glyph unicode="&#xe924;" glyph-name="undo-solid" d="M544 735.945c0 25.709-28.785 40.922-50.027 26.439l-352-240c-18.631-12.703-18.631-40.176 0-52.879l352-240c21.242-14.483 50.027 0.73 50.027 26.439v125.989c70.337-8.672 145.003-44.918 212.971-99.449 60.333-48.406 107.029-107.78 107.029-122.54l63.996 0.51c-3.423 214.808-159.858 427.526-383.996 446.168v129.322z" />
<glyph unicode="&#xe925;" glyph-name="undo" d="M544 735.945c0 25.709-28.785 40.922-50.027 26.439l-352-240c-18.631-12.703-18.631-40.176 0-52.879l352-240c21.242-14.483 50.027 0.73 50.027 26.439v125.989c70.337-8.672 145.003-44.918 212.971-99.449 60.333-48.406 107.029-107.78 107.029-122.54l63.996 0.51c-3.423 214.808-159.858 427.526-383.996 446.168v129.322zM512 447.945c-17.673 0-32-14.327-32-32v-99.452l-263.196 179.452 263.196 179.452v-99.452c0-17.673 14.327-32 32-32 151.473 0 272.227-107.907 324.276-243.471-85.508 77.091-215.785 147.471-324.276 147.471z" />
<glyph unicode="&#xe926;" glyph-name="magnifier" d="M603.981 333.391c-33.451-28.317-76.722-45.391-123.981-45.391-106.039 0-192 85.961-192 192s85.961 192 192 192c106.039 0 192-85.961 192-192 0-47.259-17.075-90.531-45.391-123.981l136.705-136.705c6.248-6.248 6.248-16.379 0-22.627s-16.379-6.248-22.627 0l-136.705 136.705zM480 320c88.366 0 160 71.634 160 160s-71.634 160-160 160c-88.366 0-160-71.634-160-160s71.634-160 160-160z" />
<glyph unicode="&#xe927;" glyph-name="magnifier-lg" d="M464 224c-150.221 0-272 121.779-272 272s121.779 272 272 272c150.221 0 272-121.779 272-272s-121.779-272-272-272zM464 256c132.548 0 240 107.452 240 240s-107.452 240-240 240c-132.548 0-240-107.452-240-240s107.452-240 240-240zM676.26 231.169l130.909-130.909c5.68-5.68 14.89-5.68 20.57 0s5.68 14.89 0 20.57l-130.909 130.909c-5.68 5.68-14.89 5.68-20.57 0s-5.68-14.89 0-20.57z" />
<glyph unicode="&#xe928;" glyph-name="handshake" d="M764.28 346.248l-25.299-16.993c3.441-17.967-2.729-36.016-17.38-48.527-10.848-9.28-24-13.76-36.704-13.152-4.608-11.552-13.888-21.472-26.72-27.904-13.12-6.56-27.552-8.448-40.16-5.76-6.816-13.792-18.752-25.152-33.312-30.752-12.32-4.8-25.12-4.8-36.384-0.384-8.416-7.136-20.544-10.752-36.32-10.752-19.648 0-45.024 10.88-56.8 18.624-14.272 9.376-85.888 63.232-145.472 113.12-9.888 8.32-24.672 23.712-38.944 38.624-4.168 4.357-8.186 8.575-11.831 12.343-2.088-6.569-3.429-10.681-3.753-11.671-2.144-6.592-8.288-11.040-15.2-11.040h-96c-8.832 0-16 7.168-16 16v288c0 4.416 1.824 8.64 5.024 11.648s7.456 4.448 11.936 4.32c32.96-1.952 142.624-10.368 170.048-36.352 3.552-3.36 5.344-8.16 4.928-12.992-0.404-4.623-0.955-9.512-1.637-14.624h128.009c41.259 32.553 78.488 40.456 136.22 14.624 33.701-15.087 67.447-28.423 91.638-37.596-1.719 3.564-2.071 7.675-0.95 11.516 1.312 4.352 4.384 8 8.544 9.92 2.912 1.376 72.608 33.536 198.24 33.536 8.832 0 16-7.168 16-16v-288c0-8.832-7.168-16-16-16h-96c-7.2 0-13.504 4.8-15.424 11.744-1.058 3.835-2.512 8.727-4.296 14.48zM754.028 377.916c-16.429 49.268-41.813 120.255-60.591 165.904-16.697 5.982-70.364 25.615-123.964 49.612-56.64 25.312-83.456 12.288-135.456-39.744-21.856-21.856-38.72-54.56-35.36-68.608 0.48-2.080 1.344-4.224 6.368-5.856 15.648-5.216 39.040-8.128 61.664 25.696 2.656 3.968 6.976 6.528 11.712 7.040 10.816 1.056 13.504 2.272 21.472 5.888 5.248 2.336 11.904 5.344 22.72 9.216 5.76 2.080 12.32 0.704 16.736-3.712 17.472-17.504 44.928-39.712 74.016-63.232 44.063-35.646 89.408-72.321 111.483-101.818l29.2 19.613zM269.645 409.208c5.871-5.511 14.737-14.712 24.275-24.672 13.024-13.632 27.808-29.088 36.384-36.256 60.832-50.944 131.264-103.52 142.464-110.88 9.408-6.176 28.576-13.376 39.232-13.376 3.079 0 5.583 0.162 7.623 0.434-24.224 22.803-56.483 57.068-67.303 68.654-6.048 6.432-5.696 16.576 0.768 22.592 6.432 6.048 16.576 5.728 22.592-0.768 9.094-9.732 55.539-59.169 78.426-78.521 0.231-0.187 0.457-0.382 0.678-0.583 6.368-5.792 13.504-4.704 18.4-2.848 7.722 2.996 14.071 9.552 17.087 17.142-26.591 23.801-73.526 74.504-74.047 75.082-5.984 6.496-5.568 16.608 0.96 22.592 6.528 5.952 16.608 5.568 22.592-0.96 10.88-11.84 59.040-62.976 78.24-78.304 0.424-0.341 0.826-0.699 1.206-1.073 4.22-3.509 14.632-4.176 24.618 0.817 3.293 1.66 10.012 5.778 11.863 12.696-23.954 21.849-83.83 84.233-91.255 91.976-6.112 6.4-5.888 16.512 0.48 22.624 6.368 6.144 16.48 5.888 22.624-0.48 31.297-32.625 81.677-84.208 93.936-94.15 4.784-2.935 13.183-1.156 19.312 4.102 4.352 3.712 10.688 11.712 4.768 24.032-11.968 24.96-65.312 68.096-112.352 106.176-26.016 21.024-50.72 41.024-69.024 58.208-4.672-1.888-8.192-3.456-11.2-4.8-8.32-3.776-13.856-6.080-24.032-7.648-24.608-32.704-57.696-44.128-93.952-32.192-14.464 4.768-24.224 15.008-27.52 28.832-7.678 32.306 21.757 76.381 43.617 98.368h-98.131c-10.636-55.059-29.959-122.693-43.329-166.816zM160 384.024h68.32c11.904 37.568 50.272 162.080 58.784 232.16-20.16 9.792-75.68 18.592-127.104 22.688v-254.848zM795.968 352.024h68.032v255.808c-76.128-1.792-128.576-16.032-152.992-24.32 24.992-53.248 69.792-182.080 84.96-231.488z" />
</font>
</defs>
</svg>
