<svg xmlns="http://www.w3.org/2000/svg" width="196" height="273" viewBox="0 0 196 273">
  <defs>
    <radialGradient id="a" cx="0%" cy="0%" r="141.421%" fx="0%" fy="0%">
      <stop stop-color="#FFC973" offset="0%"/>
      <stop stop-color="#EC40A4" offset="100%"/>
    </radialGradient>
  </defs>
  <g fill="none" fill-rule="evenodd">
    <path fill="#434954" d="M3.77533599,272.049731 C2.72281281,272.049731 1.8304696,271.683641 1.09827956,270.951451 C0.366089526,270.219261 -9.9475983e-14,269.326918 -9.9475983e-14,268.274395 L-9.9475983e-14,227.775336 C-9.9475983e-14,226.722813 0.366089526,225.83047 1.09827956,225.09828 C1.8304696,224.36609 2.72281281,224 3.77533599,224 C4.82785916,224 5.73164268,224.36609 6.48671365,225.09828 C7.24178463,225.83047 7.61931445,226.722813 7.61931445,227.775336 L7.61931445,244.249529 L25.3977148,244.249529 L25.3977148,227.775336 C25.3977148,226.722813 25.7638044,225.83047 26.4959944,225.09828 C27.2281844,224.36609 28.1205277,224 29.1730508,224 C30.225574,224 31.1293575,224.36609 31.8844285,225.09828 C32.6394995,225.83047 33.0170293,226.722813 33.0170293,227.775336 L33.0170293,268.274395 C33.0170293,269.326918 32.6394995,270.219261 31.8844285,270.951451 C31.1293575,271.683641 30.225574,272.049731 29.1730508,272.049731 C28.1205277,272.049731 27.2281844,271.683641 26.4959944,270.951451 C25.7638044,270.219261 25.3977148,269.326918 25.3977148,268.274395 L25.3977148,251.800201 L7.61931445,251.800201 L7.61931445,268.274395 C7.61931445,269.326918 7.24178463,270.219261 6.48671365,270.951451 C5.73164268,271.683641 4.82785916,272.049731 3.77533599,272.049731 Z M66.3257891,257.986604 C66.3257891,261.876364 64.8957519,265.228371 62.0356345,268.042726 C59.1755172,270.857082 55.7891891,272.264238 51.8765486,272.264238 C47.9639081,272.264238 44.6004606,270.868522 41.7861052,268.077048 C38.9717497,265.285573 37.5645931,261.922126 37.5645931,257.986604 L37.5645931,241.581053 C37.5645931,240.620054 37.9192423,239.773472 38.6285514,239.041282 C39.3378605,238.309092 40.1958828,237.943002 41.2026441,237.943002 C42.2094054,237.943002 43.0674278,238.309092 43.7767369,239.041282 C44.486046,239.773472 44.8406952,240.620054 44.8406952,241.581053 L44.8406952,257.986604 C44.8406952,259.954365 45.5156727,261.613208 46.8656481,262.963183 C48.2156235,264.313159 49.8744667,264.988136 51.8422274,264.988136 C53.8099881,264.988136 55.4917119,264.313159 56.8874491,262.963183 C58.2831864,261.613208 59.0039251,259.954365 59.049687,257.986604 L59.049687,241.581053 C59.049687,240.620054 59.3928959,239.773472 60.0793241,239.041282 C60.7657522,238.309092 61.600894,237.943002 62.5847743,237.943002 C63.5686547,237.943002 64.4381173,238.309092 65.1931883,239.041282 C65.9482593,239.773472 66.3257891,240.620054 66.3257891,241.581053 L66.3257891,257.986604 Z M70.6845861,268.343037 L70.6845861,227.706694 C70.6845861,226.699932 71.0506756,225.83047 71.7828656,225.09828 C72.5150557,224.36609 73.3959586,224 74.4256008,224 C75.4552431,224 76.336146,224.36609 77.068336,225.09828 C77.8005261,225.83047 78.1666156,226.699932 78.1666156,227.706694 L78.1666156,240.611478 C80.9123282,238.68948 83.978328,237.728495 87.3647069,237.728495 C91.9866565,237.728495 95.9221189,239.421659 99.1712122,242.808037 C102.420305,246.194416 104.044828,250.232841 104.044828,254.923434 C104.044828,259.614026 102.420305,263.641011 99.1712122,267.004509 C95.9221189,270.368007 91.9866565,272.049731 87.3647069,272.049731 C84.0240899,272.049731 80.9123289,271.065865 78.0293306,269.098104 C77.8462831,269.921818 77.4229921,270.619676 76.7594449,271.1917 C76.0958977,271.763723 75.2836366,272.049731 74.3226371,272.049731 C73.3616377,272.049731 72.5150557,271.683641 71.7828656,270.951451 C71.0506756,270.219261 70.6845861,269.349799 70.6845861,268.343037 Z M87.3647069,245.210524 C84.8020418,245.210524 82.6283852,246.171509 80.843672,248.093508 C79.0589588,250.015507 78.1666156,252.292126 78.1666156,254.923434 C78.1666156,257.554742 79.0703991,259.819921 80.8779933,261.719039 C82.6855874,263.618157 84.8478037,264.567701 87.3647069,264.567701 C89.8816102,264.567701 92.0438264,263.618157 93.8514206,261.719039 C95.6590147,259.819921 96.5627982,257.554742 96.5627982,254.923434 C96.5627982,252.292126 95.670455,250.015507 93.8857418,248.093508 C92.1010286,246.171509 89.927372,245.210524 87.3647069,245.210524 Z M112.256184,237.797137 C113.308707,237.797137 114.18961,238.151786 114.898919,238.861095 C115.608228,239.570404 115.962877,240.474188 115.962877,241.572473 L115.962877,268.343037 C115.962877,269.39556 115.608228,270.276463 114.898919,270.985772 C114.18961,271.695082 113.320147,272.049731 112.290505,272.049731 C111.260863,272.049731 110.37996,271.683641 109.64777,270.951451 C108.91558,270.219261 108.54949,269.349799 108.54949,268.343037 L108.54949,241.572473 C108.54949,240.474188 108.904139,239.570404 109.613448,238.861095 C110.322757,238.151786 111.20366,237.797137 112.256184,237.797137 Z M115.962877,227.706694 L115.962877,229.148185 C115.962877,230.200709 115.608228,231.093052 114.898919,231.825242 C114.18961,232.557432 113.320147,232.923521 112.290505,232.923521 C111.260863,232.923521 110.37996,232.557432 109.64777,231.825242 C108.91558,231.093052 108.54949,230.200709 108.54949,229.148185 L108.54949,227.706694 C108.54949,226.699932 108.91558,225.83047 109.64777,225.09828 C110.37996,224.36609 111.260863,224 112.290505,224 C113.320147,224 114.18961,224.354649 114.898919,225.063958 C115.608228,225.773267 115.962877,226.65417 115.962877,227.706694 Z M136.152344,237.728495 C137.204867,237.728495 138.108651,238.094584 138.863722,238.826774 C139.618793,239.558964 139.996323,240.439867 139.996323,241.469509 C139.996323,242.499151 139.618793,243.391495 138.863722,244.146566 C138.108651,244.901637 137.204867,245.279166 136.152344,245.279166 L134.436282,245.279166 L134.436282,264.430416 C135.488806,264.430416 136.381149,264.807946 137.113339,265.563017 C137.845529,266.318088 138.211618,267.221872 138.211618,268.274395 C138.211618,269.326918 137.845529,270.219261 137.113339,270.951451 C136.381149,271.683641 135.488806,272.049731 134.436282,272.049731 C132.331236,272.049731 130.535109,271.306111 129.047848,269.81885 C127.560587,268.331589 126.816968,266.535463 126.816968,264.430416 L126.816968,245.279166 L124.826336,245.279166 C123.773813,245.279166 122.88147,244.913077 122.14928,244.180887 C121.41709,243.448697 121.051,242.556354 121.051,241.50383 C121.051,240.451307 121.41709,239.558964 122.14928,238.826774 C122.88147,238.094584 123.773813,237.728495 124.826336,237.728495 L126.816968,237.728495 L126.816968,227.775336 C126.816968,226.722813 127.194498,225.83047 127.949569,225.09828 C128.70464,224.36609 129.608423,224 130.660946,224 C131.71347,224 132.605813,224.36609 133.338003,225.09828 C134.070193,225.83047 134.436282,226.722813 134.436282,227.775336 L134.436282,237.728495 L136.152344,237.728495 Z M145.564943,267.03883 C142.430255,263.698213 140.862934,259.659788 140.862934,254.923434 C140.862934,250.18708 142.430255,246.137214 145.564943,242.773716 C148.699632,239.410218 152.577893,237.728495 157.199842,237.728495 C160.448936,237.728495 163.492055,238.735241 166.329291,240.748763 C166.558101,239.879288 166.992832,239.158549 167.633498,238.586525 C168.274165,238.014502 169.063545,237.728495 170.001664,237.728495 C170.939782,237.728495 171.763483,238.094584 172.472793,238.826774 C173.182102,239.558964 173.536751,240.428427 173.536751,241.435188 L173.536751,268.41168 C173.536751,269.418441 173.182102,270.276463 172.472793,270.985772 C171.763483,271.695082 170.939782,272.049731 170.001664,272.049731 C169.063545,272.049731 168.274165,271.775164 167.633498,271.226021 C166.992832,270.676879 166.558101,269.96758 166.329291,269.098104 C163.537817,271.065865 160.494698,272.049731 157.199842,272.049731 C152.577893,272.049731 148.699632,270.379447 145.564943,267.03883 Z M150.713129,261.890645 C152.383437,263.766882 154.534213,264.704986 157.165521,264.704986 C159.796829,264.704986 161.970486,263.766882 163.686556,261.890645 C165.402626,260.014408 166.260649,257.703468 166.260649,254.957755 C166.260649,252.212042 165.391186,249.878222 163.652235,247.956223 C161.913283,246.034224 159.751067,245.073239 157.165521,245.073239 C154.579975,245.073239 152.440639,246.022784 150.74745,247.921902 C149.054261,249.82102 148.207679,252.15484 148.207679,254.923434 C148.207679,257.692027 149.04282,260.014408 150.713129,261.890645 Z M192.156022,237.728495 C193.208545,237.728495 194.112328,238.094584 194.867399,238.826774 C195.62247,239.558964 196,240.439867 196,241.469509 C196,242.499151 195.62247,243.391495 194.867399,244.146566 C194.112328,244.901637 193.208545,245.279166 192.156022,245.279166 L190.43996,245.279166 L190.43996,264.430416 C191.492483,264.430416 192.384826,264.807946 193.117016,265.563017 C193.849206,266.318088 194.215296,267.221872 194.215296,268.274395 C194.215296,269.326918 193.849206,270.219261 193.117016,270.951451 C192.384826,271.683641 191.492483,272.049731 190.43996,272.049731 C188.334913,272.049731 186.538787,271.306111 185.051526,269.81885 C183.564265,268.331589 182.820645,266.535463 182.820645,264.430416 L182.820645,245.279166 L180.830014,245.279166 C179.77749,245.279166 178.885147,244.913077 178.152957,244.180887 C177.420767,243.448697 177.054678,242.556354 177.054678,241.50383 C177.054678,240.451307 177.420767,239.558964 178.152957,238.826774 C178.885147,238.094584 179.77749,237.728495 180.830014,237.728495 L182.820645,237.728495 L182.820645,227.775336 C182.820645,226.722813 183.198175,225.83047 183.953246,225.09828 C184.708317,224.36609 185.612101,224 186.664624,224 C187.717147,224 188.60949,224.36609 189.34168,225.09828 C190.07387,225.83047 190.43996,226.722813 190.43996,227.775336 L190.43996,237.728495 L192.156022,237.728495 Z"/>
    <path fill="url(#a)" d="M80.8299863,1.46228554 C83.685306,-0.224201922 88.3114056,-0.226144182 91.1700137,1.46228554 L166.829986,46.1506593 C169.685306,47.8371467 172,51.8954701 172,55.1987614 L172,144.801239 C172,148.11188 169.688594,152.160911 166.829986,153.849341 L91.1700137,198.537714 C88.314694,200.224202 83.6885944,200.226144 80.8299863,198.537714 L5.1700137,153.849341 C2.31469398,152.162853 4.68375768e-14,148.10453 4.50524602e-14,144.801239 L-3.36920552e-15,55.1987614 C-5.15829409e-15,51.88812 2.31140562,47.839089 5.1700137,46.1506593 L80.8299863,1.46228554 Z M36.4188612,135.743416 C36.6376479,135.816345 37.0328222,135.943821 37.5927922,136.118034 C38.5081334,136.402807 39.5648509,136.718607 40.7513944,137.05762 C44.1245468,138.021378 47.8764043,138.983392 51.9153477,139.880935 C63.4936601,142.453894 75.089458,144 86,144 C96.910542,144 108.50634,142.453894 120.084652,139.880935 C124.123596,138.983392 127.875453,138.021378 131.248606,137.05762 C132.435149,136.718607 133.491867,136.402807 134.407208,136.118034 C134.967178,135.943821 135.362352,135.816345 135.581139,135.743416 C138.200855,134.870178 139.616655,132.038578 138.743416,129.418861 C137.870178,126.799145 135.038578,125.383345 132.418861,126.256584 C132.262648,126.308655 131.93126,126.415554 131.436542,126.569466 C130.594071,126.831568 129.611726,127.125143 128.501394,127.44238 C125.312047,128.353622 121.751404,129.266608 117.915348,130.119065 C106.99366,132.546106 96.089458,134 86,134 C75.910542,134 65.0063399,132.546106 54.0846523,130.119065 C50.2485957,129.266608 46.6879532,128.353622 43.4986056,127.44238 C42.3882741,127.125143 41.4059291,126.831568 40.5634578,126.569466 C40.0687403,126.415554 39.7373521,126.308655 39.5811388,126.256584 C36.9614222,125.383345 34.1298224,126.799145 33.2565835,129.418861 C32.3833446,132.038578 33.7991446,134.870178 36.4188612,135.743416 Z" transform="translate(12)"/>
  </g>
</svg>
