<svg xmlns="http://www.w3.org/2000/svg" width="527" height="200" viewBox="0 0 527 200">
  <defs>
    <radialGradient id="a" cx="0%" cy="0%" r="141.421%" fx="0%" fy="0%">
      <stop stop-color="#FFC973" offset="0%"/>
      <stop stop-color="#EC40A4" offset="100%"/>
    </radialGradient>
  </defs>
  <g fill="none" fill-rule="evenodd">
    <path fill="#434954" d="M208.257778,139.644444 C206.513176,139.644444 205.03408,139.037636 203.820444,137.824 C202.606809,136.610364 202,135.131268 202,133.386667 L202,66.2577778 C202,64.5131765 202.606809,63.0340801 203.820444,61.8204444 C205.03408,60.6068087 206.513176,60 208.257778,60 C210.002379,60 211.500438,60.6068087 212.752,61.8204444 C214.003562,63.0340801 214.629333,64.5131765 214.629333,66.2577778 L214.629333,93.5644444 L244.097778,93.5644444 L244.097778,66.2577778 C244.097778,64.5131765 244.704587,63.0340801 245.918222,61.8204444 C247.131858,60.6068087 248.610954,60 250.355556,60 C252.100157,60 253.598216,60.6068087 254.849778,61.8204444 C256.10134,63.0340801 256.727111,64.5131765 256.727111,66.2577778 L256.727111,133.386667 C256.727111,135.131268 256.10134,136.610364 254.849778,137.824 C253.598216,139.037636 252.100157,139.644444 250.355556,139.644444 C248.610954,139.644444 247.131858,139.037636 245.918222,137.824 C244.704587,136.610364 244.097778,135.131268 244.097778,133.386667 L244.097778,106.08 L214.629333,106.08 L214.629333,133.386667 C214.629333,135.131268 214.003562,136.610364 212.752,137.824 C211.500438,139.037636 210.002379,139.644444 208.257778,139.644444 Z M311.937778,116.334222 C311.937778,122.781662 309.567431,128.337754 304.826667,133.002667 C300.085902,137.667579 294.472921,140 287.987556,140 C281.50219,140 275.927134,137.686542 271.262222,133.059556 C266.59731,128.432569 264.264889,122.857514 264.264889,116.334222 L264.264889,89.1413333 C264.264889,87.5484365 264.852735,86.1451913 266.028444,84.9315556 C267.204154,83.7179199 268.626362,83.1111111 270.295111,83.1111111 C271.96386,83.1111111 273.386068,83.7179199 274.561778,84.9315556 C275.737487,86.1451913 276.325333,87.5484365 276.325333,89.1413333 L276.325333,116.334222 C276.325333,119.595868 277.444137,122.34547 279.681778,124.583111 C281.919419,126.820752 284.669021,127.939556 287.930667,127.939556 C291.192313,127.939556 293.97984,126.820752 296.293333,124.583111 C298.606826,122.34547 299.801481,119.595868 299.877333,116.334222 L299.877333,89.1413333 C299.877333,87.5484365 300.446217,86.1451913 301.584,84.9315556 C302.721783,83.7179199 304.106066,83.1111111 305.736889,83.1111111 C307.367712,83.1111111 308.808883,83.7179199 310.060444,84.9315556 C311.312006,86.1451913 311.937778,87.5484365 311.937778,89.1413333 L311.937778,116.334222 Z M319.162667,133.500444 L319.162667,66.144 C319.162667,64.4752509 319.769475,63.0340801 320.983111,61.8204444 C322.196747,60.6068087 323.65688,60 325.363556,60 C327.070231,60 328.530364,60.6068087 329.744,61.8204444 C330.957636,63.0340801 331.564444,64.4752509 331.564444,66.144 L331.564444,87.5342222 C336.115578,84.3484285 341.197602,82.7555556 346.810667,82.7555556 C354.471742,82.7555556 360.994936,85.562046 366.380444,91.1751111 C371.765953,96.7881762 374.458667,103.482035 374.458667,111.256889 C374.458667,119.031743 371.765953,125.706639 366.380444,131.281778 C360.994936,136.856917 354.471742,139.644444 346.810667,139.644444 C341.273454,139.644444 336.115579,138.013646 331.336889,134.752 C331.03348,136.11734 330.331857,137.274069 329.232,138.222222 C328.132143,139.170375 326.785786,139.644444 325.192889,139.644444 C323.599992,139.644444 322.196747,139.037636 320.983111,137.824 C319.769475,136.610364 319.162667,135.169194 319.162667,133.500444 Z M346.810667,95.1573333 C342.562942,95.1573333 338.960015,96.7502063 336.001778,99.936 C333.043541,103.121794 331.564444,106.895386 331.564444,111.256889 C331.564444,115.618392 333.062504,119.373021 336.058667,122.520889 C339.05483,125.668756 342.638794,127.242667 346.810667,127.242667 C350.982539,127.242667 354.566504,125.668756 357.562667,122.520889 C360.55883,119.373021 362.056889,115.618392 362.056889,111.256889 C362.056889,106.895386 360.577793,103.121794 357.619556,99.936 C354.661319,96.7502063 351.058392,95.1573333 346.810667,95.1573333 Z M388.069333,82.8693333 C389.813935,82.8693333 391.274068,83.4571793 392.449778,84.6328889 C393.625487,85.8085985 394.213333,87.3066576 394.213333,89.1271111 L394.213333,133.500444 C394.213333,135.245046 393.625487,136.705179 392.449778,137.880889 C391.274068,139.056598 389.832897,139.644444 388.126222,139.644444 C386.419547,139.644444 384.959413,139.037636 383.745778,137.824 C382.532142,136.610364 381.925333,135.169194 381.925333,133.500444 L381.925333,89.1271111 C381.925333,87.3066576 382.513179,85.8085985 383.688889,84.6328889 C384.864598,83.4571793 386.324732,82.8693333 388.069333,82.8693333 Z M394.213333,66.144 L394.213333,68.5333333 C394.213333,70.2779346 393.625487,71.757031 392.449778,72.9706667 C391.274068,74.1843024 389.832897,74.7911111 388.126222,74.7911111 C386.419547,74.7911111 384.959413,74.1843024 383.745778,72.9706667 C382.532142,71.757031 381.925333,70.2779346 381.925333,68.5333333 L381.925333,66.144 C381.925333,64.4752509 382.532142,63.0340801 383.745778,61.8204444 C384.959413,60.6068087 386.419547,60 388.126222,60 C389.832897,60 391.274068,60.587846 392.449778,61.7635556 C393.625487,62.9392651 394.213333,64.3993987 394.213333,66.144 Z M427.678222,82.7555556 C429.422824,82.7555556 430.920883,83.3623643 432.172444,84.576 C433.424006,85.7896357 434.049778,87.2497692 434.049778,88.9564444 C434.049778,90.6631196 433.424006,92.142216 432.172444,93.3937778 C430.920883,94.6453396 429.422824,95.2711111 427.678222,95.2711111 L424.833778,95.2711111 L424.833778,127.015111 C426.578379,127.015111 428.057475,127.640883 429.271111,128.892444 C430.484747,130.144006 431.091556,131.642065 431.091556,133.386667 C431.091556,135.131268 430.484747,136.610364 429.271111,137.824 C428.057475,139.037636 426.578379,139.644444 424.833778,139.644444 C421.344575,139.644444 418.36742,138.411864 415.902222,135.946667 C413.437025,133.481469 412.204444,130.504314 412.204444,127.015111 L412.204444,95.2711111 L408.904889,95.2711111 C407.160288,95.2711111 405.681191,94.6643024 404.467556,93.4506667 C403.25392,92.237031 402.647111,90.7579346 402.647111,89.0133333 C402.647111,87.268732 403.25392,85.7896357 404.467556,84.576 C405.681191,83.3623643 407.160288,82.7555556 408.904889,82.7555556 L412.204444,82.7555556 L412.204444,66.2577778 C412.204444,64.5131765 412.830216,63.0340801 414.081778,61.8204444 C415.33334,60.6068087 416.831399,60 418.576,60 C420.320601,60 421.799698,60.6068087 423.013333,61.8204444 C424.226969,63.0340801 424.833778,64.5131765 424.833778,66.2577778 L424.833778,82.7555556 L427.678222,82.7555556 Z M443.28,131.338667 C438.084122,125.801454 435.486222,119.107595 435.486222,111.256889 C435.486222,103.406183 438.084122,96.6933612 443.28,91.1182222 C448.475878,85.5430832 454.904258,82.7555556 462.565333,82.7555556 C467.950842,82.7555556 472.994939,84.4242796 477.697778,87.7617778 C478.077039,86.3205854 478.797624,85.1259307 479.859556,84.1777778 C480.921487,83.2296249 482.229918,82.7555556 483.784889,82.7555556 C485.33986,82.7555556 486.705179,83.3623643 487.880889,84.576 C489.056598,85.7896357 489.644444,87.2308065 489.644444,88.8995556 L489.644444,133.614222 C489.644444,135.282971 489.056598,136.705179 487.880889,137.880889 C486.705179,139.056598 485.33986,139.644444 483.784889,139.644444 C482.229918,139.644444 480.921487,139.189338 479.859556,138.279111 C478.797624,137.368884 478.077039,136.193192 477.697778,134.752 C473.070792,138.013646 468.026694,139.644444 462.565333,139.644444 C454.904258,139.644444 448.475878,136.87588 443.28,131.338667 Z M451.813333,122.805333 C454.58194,125.915275 458.146941,127.470222 462.508444,127.470222 C466.869948,127.470222 470.472875,125.915275 473.317333,122.805333 C476.161792,119.695392 477.584,115.864912 477.584,111.313778 C477.584,106.762644 476.142829,102.894238 473.260444,99.7084444 C470.37806,96.5226507 466.794096,94.9297778 462.508444,94.9297778 C458.222793,94.9297778 454.676755,96.503688 451.870222,99.6515556 C449.06369,102.799423 447.660444,106.667829 447.660444,111.256889 C447.660444,115.845949 449.044727,119.695392 451.813333,122.805333 Z M520.506667,82.7555556 C522.251268,82.7555556 523.749327,83.3623643 525.000889,84.576 C526.252451,85.7896357 526.878222,87.2497692 526.878222,88.9564444 C526.878222,90.6631196 526.252451,92.142216 525.000889,93.3937778 C523.749327,94.6453396 522.251268,95.2711111 520.506667,95.2711111 L517.662222,95.2711111 L517.662222,127.015111 C519.406824,127.015111 520.88592,127.640883 522.099556,128.892444 C523.313191,130.144006 523.92,131.642065 523.92,133.386667 C523.92,135.131268 523.313191,136.610364 522.099556,137.824 C520.88592,139.037636 519.406824,139.644444 517.662222,139.644444 C514.17302,139.644444 511.195864,138.411864 508.730667,135.946667 C506.265469,133.481469 505.032889,130.504314 505.032889,127.015111 L505.032889,95.2711111 L501.733333,95.2711111 C499.988732,95.2711111 498.509636,94.6643024 497.296,93.4506667 C496.082364,92.237031 495.475556,90.7579346 495.475556,89.0133333 C495.475556,87.268732 496.082364,85.7896357 497.296,84.576 C498.509636,83.3623643 499.988732,82.7555556 501.733333,82.7555556 L505.032889,82.7555556 L505.032889,66.2577778 C505.032889,64.5131765 505.65866,63.0340801 506.910222,61.8204444 C508.161784,60.6068087 509.659843,60 511.404444,60 C513.149046,60 514.628142,60.6068087 515.841778,61.8204444 C517.055413,63.0340801 517.662222,64.5131765 517.662222,66.2577778 L517.662222,82.7555556 L520.506667,82.7555556 Z"/>
    <path fill="url(#a)" d="M80.8299863,1.46228554 C83.685306,-0.224201922 88.3114056,-0.226144182 91.1700137,1.46228554 L166.829986,46.1506593 C169.685306,47.8371467 172,51.8954701 172,55.1987614 L172,144.801239 C172,148.11188 169.688594,152.160911 166.829986,153.849341 L91.1700137,198.537714 C88.314694,200.224202 83.6885944,200.226144 80.8299863,198.537714 L5.1700137,153.849341 C2.31469398,152.162853 4.68375768e-14,148.10453 4.50524602e-14,144.801239 L-3.36920552e-15,55.1987614 C-5.15829409e-15,51.88812 2.31140562,47.839089 5.1700137,46.1506593 L80.8299863,1.46228554 Z M36.4188612,135.743416 C36.6376479,135.816345 37.0328222,135.943821 37.5927922,136.118034 C38.5081334,136.402807 39.5648509,136.718607 40.7513944,137.05762 C44.1245468,138.021378 47.8764043,138.983392 51.9153477,139.880935 C63.4936601,142.453894 75.089458,144 86,144 C96.910542,144 108.50634,142.453894 120.084652,139.880935 C124.123596,138.983392 127.875453,138.021378 131.248606,137.05762 C132.435149,136.718607 133.491867,136.402807 134.407208,136.118034 C134.967178,135.943821 135.362352,135.816345 135.581139,135.743416 C138.200855,134.870178 139.616655,132.038578 138.743416,129.418861 C137.870178,126.799145 135.038578,125.383345 132.418861,126.256584 C132.262648,126.308655 131.93126,126.415554 131.436542,126.569466 C130.594071,126.831568 129.611726,127.125143 128.501394,127.44238 C125.312047,128.353622 121.751404,129.266608 117.915348,130.119065 C106.99366,132.546106 96.089458,134 86,134 C75.910542,134 65.0063399,132.546106 54.0846523,130.119065 C50.2485957,129.266608 46.6879532,128.353622 43.4986056,127.44238 C42.3882741,127.125143 41.4059291,126.831568 40.5634578,126.569466 C40.0687403,126.415554 39.7373521,126.308655 39.5811388,126.256584 C36.9614222,125.383345 34.1298224,126.799145 33.2565835,129.418861 C32.3833446,132.038578 33.7991446,134.870178 36.4188612,135.743416 Z"/>
  </g>
</svg>
